#!OML:ASF F:\VICON\USERDATA\INSTALL\rory3\rory3.ASF
:FULLY-SPECIFIED
:DEGREES
3574
root -1.51799 14.9057 -14.6357 -541.518 -42.9198 538.76
lowerback 17.647 -1.61395 -8.65196
upperback -0.481761 -3.60375 4.9613
thorax -9.62026 -1.20513 11.4679
lowerneck -13.3162 -4.93958 -3.13533
upperneck 19.9335 -6.27697 -1.57867
head 8.44852 -3.52757 -0.735588
rclavicle -1.799e-014 -6.91771e-014
rhumerus -6.83968 45.1696 -79.0769
rradius 84.2964
rwrist 24.1559
rhand -25.7876 34.7142
rfingers 7.12502
rthumb 0.750903 4.73581
lclavicle -1.799e-014 -6.91771e-014
lhumerus 45.9931 -46.5923 53.5412
lradius 56.7117
lwrist 68.7531
lhand 23.7269 41.8656
lfingers 7.12502
lthumb 47.9898 64.0832
rfemur -23.5188 -20.8388 1.92705
rtibia 52.1975
rfoot -15.7929 -6.81631
rtoes -19.9997
lfemur -30.6291 28.8078 -6.50401
ltibia 58.775
lfoot -14.1375 4.92121
ltoes 4.06499
3575
root -1.53866 14.9052 -14.6177 -541.677 -43.0449 538.9
lowerback 17.5928 -1.64849 -8.58173
upperback -0.410173 -3.63186 4.99405
thorax -9.5036 -1.23588 11.4602
lowerneck -12.6 -5.14317 -2.72062
upperneck 18.9511 -6.5404 -2.06151
head 7.95861 -3.65559 -0.942035
rclavicle -3.67752e-015 3.18055e-015
rhumerus -6.7006 45.0769 -78.9868
rradius 84.0604
rwrist 24.188
rhand -26.0956 34.8676
rfingers 7.12502
rthumb 0.453377 4.88829
lclavicle -3.67752e-015 3.18055e-015
lhumerus 46.0741 -46.4585 53.4485
lradius 56.8429
lwrist 68.8178
lhand 22.4255 40.1264
lfingers 7.12502
lthumb 46.7876 62.8856
rfemur -23.2726 -20.795 1.87735
rtibia 51.9728
rfoot -15.7172 -6.83567
rtoes -19.977
lfemur -30.6652 28.8603 -6.49301
ltibia 58.879
lfoot -14.1684 4.78262
ltoes 3.72417
3576
root -1.55557 14.9058 -14.6015 -541.862 -43.0979 539.075
lowerback 17.5359 -1.6549 -8.61578
upperback -0.307002 -3.64173 5.08675
thorax -9.34515 -1.25694 11.5785
lowerneck -12.5915 -5.1142 -2.87868
upperneck 18.8621 -6.4894 -1.92103
head 7.93836 -3.62579 -0.862783
rclavicle 1.20265e-014 -3.02153e-014
rhumerus -6.50401 45.169 -78.7775
rradius 83.8658
rwrist 24.1754
rhand -26.1972 35.1311
rfingers 7.12502
rthumb 0.355291 5.15169
lclavicle 1.20265e-014 -3.02153e-014
lhumerus 46.0671 -46.1599 53.5284
lradius 56.9194
lwrist 68.8011
lhand 6.69002 27.9778
lfingers 7.12502
lthumb 31.9806 55.1876
rfemur -23.0717 -20.612 1.90641
rtibia 51.748
rfoot -15.6049 -6.95751
rtoes -20.2493
lfemur -30.6927 28.961 -6.4436
ltibia 58.9648
lfoot -14.0533 4.93785
ltoes 1.97584
3577
root -1.57392 14.9111 -14.5833 -541.888 -43.2001 539.082
lowerback 17.4998 -1.66253 -8.70794
upperback -0.29558 -3.66621 5.12351
thorax -9.29795 -1.26801 11.6778
lowerneck -12.5302 -5.02791 -2.92307
upperneck 18.8816 -6.37465 -1.88037
head 7.93654 -3.57217 -0.828898
rclavicle 5.54609e-014 -4.45278e-014
rhumerus -6.54364 45.2181 -78.7141
rradius 83.6485
rwrist 24.4122
rhand -25.8329 35.0148
rfingers 7.12502
rthumb 0.707118 5.03622
lclavicle 5.54609e-014 -4.45278e-014
lhumerus 46.0487 -45.9877 53.6352
lradius 56.9646
lwrist 68.7674
lhand 6.62822 28.0379
lfingers 7.12502
lthumb 31.9217 55.2595
rfemur -22.8264 -20.5685 1.79082
rtibia 51.4907
rfoot -15.5842 -6.96492
rtoes -19.6178
lfemur -30.7668 28.9474 -6.58384
ltibia 59.0346
lfoot -14.0888 5.03763
ltoes 0.867415
3578
root -1.59214 14.9134 -14.5593 -541.76 -43.3732 538.912
lowerback 17.5836 -1.67392 -8.80023
upperback -0.338167 -3.70708 5.08857
thorax -9.37944 -1.27398 11.7123
lowerneck -12.9332 -5.07148 -3.4358
upperneck 19.1802 -6.38492 -1.52012
head 8.14031 -3.57819 -0.649563
rclavicle -4.45278e-014 4.77083e-015
rhumerus -6.65604 45.1467 -78.7209
rradius 83.4632
rwrist 24.6136
rhand -25.3917 34.8672
rfingers 7.12502
rthumb 1.1333 4.89042
lclavicle -4.45278e-014 4.77083e-015
lhumerus 46.137 -45.9295 53.6281
lradius 57.0317
lwrist 68.7601
lhand 6.7394 28.0154
lfingers 7.12502
lthumb 32.0276 55.2158
rfemur -22.6066 -20.5615 1.50279
rtibia 51.2512
rfoot -15.5548 -6.93216
rtoes -18.8039
lfemur -30.8885 28.7394 -6.90576
ltibia 59.1134
lfoot -14.3034 4.80226
ltoes 2.31651
3579
root -1.61112 14.9141 -14.5392 -541.783 -43.5329 538.897
lowerback 17.7326 -1.68698 -8.72919
upperback -0.400992 -3.72334 5.0258
thorax -9.53833 -1.26964 11.6189
lowerneck -9.50349 -5.30093 -0.0933213
upperneck 15.0973 -6.80036 -4.59576
head 5.97277 -3.77994 -1.97761
rclavicle 7.64327e-014 -4.53229e-014
rhumerus -6.83338 45.0159 -78.8513
rradius 83.2791
rwrist 24.5805
rhand -25.375 35.1473
rfingers 7.12502
rthumb 1.14941 5.17062
lclavicle 7.64327e-014 -4.53229e-014
lhumerus 46.2735 -45.9999 53.4312
lradius 57.1172
lwrist 68.846
lhand 6.77558 28.1191
lfingers 7.12502
lthumb 32.062 55.3126
rfemur -22.3751 -20.6296 1.30715
rtibia 51.0313
rfoot -15.3579 -6.95281
rtoes -18.7062
lfemur -30.9428 28.5278 -7.04413
ltibia 59.225
lfoot -14.5426 4.49569
ltoes 4.30328
3580
root -1.63578 14.9143 -14.5294 -541.904 -43.482 539.209
lowerback 17.5479 -1.69205 -8.52523
upperback -0.477188 -3.66947 5.05996
thorax -9.54305 -1.2489 11.5128
lowerneck -13.0205 -5.07685 -3.57387
upperneck 19.5668 -6.46544 -1.10429
head 8.30589 -3.59266 -0.511354
rclavicle -6.60959e-014 -1.51076e-014
rhumerus -7.13529 44.7554 -79.2128
rradius 83.0684
rwrist 24.466
rhand -25.0633 35.4912
rfingers 7.12502
rthumb 1.45044 5.51634
lclavicle -6.60959e-014 -1.51076e-014
lhumerus 46.0246 -46.0154 53.6446
lradius 57.1615
lwrist 68.7009
lhand 6.78008 28.144
lfingers 7.12502
lthumb 32.0663 55.3366
rfemur -22.323 -20.4687 1.50986
rtibia 50.8283
rfoot -15.2414 -7.02938
rtoes -18.3079
lfemur -31.0879 28.6222 -6.89302
ltibia 59.3733
lfoot -14.6253 4.39711
ltoes 4.64215
3581
root -1.66372 14.9104 -14.5227 -541.825 -43.2259 539.469
lowerback 16.955 -1.67175 -8.45957
upperback -0.473116 -3.57804 5.15238
thorax -9.22393 -1.23176 11.5045
lowerneck -10.5989 -5.0713 -1.25295
upperneck 16.8367 -6.51198 -3.28507
head 6.81376 -3.63142 -1.44512
rclavicle -3.34952e-014 1.43125e-014
rhumerus -7.16202 44.7076 -79.2615
rradius 82.8521
rwrist 24.3634
rhand -24.2932 35.8284
rfingers 7.12502
rthumb 2.19422 5.85989
lclavicle -3.34952e-014 1.43125e-014
lhumerus 45.6256 -45.8086 53.9952
lradius 57.3138
lwrist 68.5846
lhand 6.78946 28.1831
lfingers 7.12502
lthumb 32.0753 55.3739
rfemur -22.5778 -20.0628 1.80499
rtibia 50.6658
rfoot -15.1502 -7.3438
rtoes -19.1472
lfemur -31.3587 29.0674 -6.84944
ltibia 59.5296
lfoot -14.5827 4.65625
ltoes 2.36482
3582
root -1.69473 14.9168 -14.5112 -541.4 -43.1115 539.121
lowerback 16.4849 -1.64866 -8.70504
upperback -0.481551 -3.55945 5.07897
thorax -8.96254 -1.2296 11.5174
lowerneck -11.3972 -4.80921 -1.92918
upperneck 17.9549 -6.16856 -2.53057
head 7.37063 -3.46083 -1.11968
rclavicle 3.50855e-014 -2.94201e-014
rhumerus -7.24844 44.7999 -79.3096
rradius 82.6319
rwrist 24.2899
rhand -24.1003 35.8079
rfingers 7.12502
rthumb 2.38048 5.84142
lclavicle 3.50855e-014 -2.94201e-014
lhumerus 45.4929 -45.6862 54.1485
lradius 57.4446
lwrist 68.4823
lhand 6.98333 28.3876
lfingers 7.12502
lthumb 32.2598 55.5411
rfemur -22.7049 -19.8712 1.40781
rtibia 50.5107
rfoot -15.2532 -6.83479
rtoes -16.0323
lfemur -31.5179 29.3671 -7.35969
ltibia 59.5994
lfoot -14.5887 4.92165
ltoes -0.0747937
3583
root -1.71938 14.9202 -14.4981 -541.204 -43.1192 539.022
lowerback 16.2391 -1.61875 -8.72505
upperback -0.497736 -3.50365 5.04506
thorax -8.85655 -1.20845 11.4564
lowerneck -10.0673 -4.96996 -0.884124
upperneck 16.3702 -6.3948 -3.57677
head 6.54906 -3.57145 -1.55612
rclavicle -5.63555e-014 -4.69132e-014
rhumerus -7.37566 44.699 -79.315
rradius 82.4716
rwrist 24.191
rhand -24.3646 35.5105
rfingers 7.12502
rthumb 2.1252 5.54138
lclavicle -5.63555e-014 -4.69132e-014
lhumerus 45.7214 -45.722 53.9917
lradius 57.623
lwrist 68.6776
lhand 6.89901 28.2356
lfingers 7.12502
lthumb 32.1796 55.4054
rfemur -22.6791 -19.84 1.17998
rtibia 50.2823
rfoot -15.3699 -6.2045
rtoes -11.5463
lfemur -31.6394 29.4399 -7.5554
ltibia 59.6565
lfoot -14.8298 4.38073
ltoes 2.70225
